<svg xmlns="http://www.w3.org/2000/svg" width="126" height="100.8" viewBox="0 0 126 100.8"><path d="M81.9,6.288C81.9,4.282,80.345,0,75.62,0a6.307,6.307,0,0,0-6.081,4.564l-25.2,88.2a6.287,6.287,0,0,0-.244,1.733,6.218,6.218,0,0,0,6.306,6.3,6.3,6.3,0,0,0,6.054-4.571l25.2-88.2A6.307,6.307,0,0,0,81.9,6.288ZM34.65,28.173A6.3,6.3,0,0,0,23.9,23.719L1.847,45.769a6.5,6.5,0,0,0,0,9.081L23.9,76.9a6.058,6.058,0,0,0,4.454,1.673A6.3,6.3,0,0,0,32.8,67.818l-17.6-17.595,17.6-17.6A5.724,5.724,0,0,0,34.65,28.173ZM126,50.223a6.282,6.282,0,0,0-1.846-4.455L102.1,23.718a7.094,7.094,0,0,0-4.454-1.845A6.3,6.3,0,0,0,93.2,32.628l17.6,17.6-17.6,17.6a6.886,6.886,0,0,0-1.846,4.451A6.3,6.3,0,0,0,102.1,76.727l22.05-22.05A5.694,5.694,0,0,0,126,50.223Z" fill="#fff"/></svg>