<svg width="125" height="125" viewBox="0 0 125 125" fill="none" xmlns="http://www.w3.org/2000/svg">
<path d="M111.304 0H13.0946C5.81984 0 0 5.81984 0 13.0946V111.304C0 118.579 5.81984 124.399 13.0946 124.399H111.304C118.434 124.399 124.399 118.579 124.399 111.304V13.0946C124.399 5.81984 118.579 0 111.304 0ZM61.9812 75.8034C66.0551 75.8034 70.42 74.2029 74.6394 70.42L80.4592 77.1128C74.3484 82.0597 67.3646 84.8241 60.3808 84.8241C46.5587 84.8241 37.8289 75.6579 39.8659 62.7087C41.9028 49.7596 53.688 40.5933 67.5101 40.5933C74.2029 40.5933 80.4592 43.2123 84.8241 48.0136L76.6763 54.7065C74.3484 51.651 70.42 49.6141 66.0551 49.6141C57.7619 49.6141 51.36 54.9974 50.0506 62.7087C48.8866 70.42 53.5425 75.8034 61.9812 75.8034Z" fill="#E5422B"/>
</svg>
