<svg xmlns="http://www.w3.org/2000/svg" width="31.096" height="22.026" viewBox="0 0 31.096 22.026"><g transform="translate(0 -7)"><path d="M29.152,7H1.943A1.943,1.943,0,0,0,0,8.943V27.083a1.943,1.943,0,0,0,1.943,1.943H29.152A1.943,1.943,0,0,0,31.1,27.083V8.943A1.943,1.943,0,0,0,29.152,7Zm-.415,1.3-13.19,10.2L2.358,8.3ZM1.3,26.817V9.112l9.983,7.716Zm.913.913,10.1-10.1,2.837,2.2a.648.648,0,0,0,.79,0l2.85-2.2,10.1,10.1ZM29.8,26.817l-9.983-9.99L29.8,9.112Z" transform="translate(0)" fill="#fff"/></g></svg>