<svg width="91" height="73" viewBox="0 0 91 73" fill="none" xmlns="http://www.w3.org/2000/svg">
<path d="M72.5625 71.3425C78.7325 70.8925 81.4725 67.9225 82.1725 61.2725C82.7225 56.1025 82.9225 53.5125 83.1925 48.3325C83.5125 42.1525 86.6525 38.5925 89.6925 36.9425C90.6025 36.4325 90.6025 35.2425 89.6925 34.6725C86.5325 32.7825 83.4625 28.7525 83.1825 23.4425C82.9125 18.3625 82.7125 15.8225 82.1725 10.7325C81.4125 3.5725 79.0825 1.2625 72.9125 0.8025C54.3325 -0.2675 36.0525 -0.2675 17.4625 0.8025C11.2925 1.2625 8.9625 3.5625 8.2025 10.7325C7.6625 15.8125 7.4625 18.3525 7.1925 23.4425C6.9125 28.7525 3.8425 32.7825 0.6825 34.6725C-0.2275 35.1825 -0.2275 36.4325 0.6825 36.9425C3.7225 38.5425 6.8525 42.1025 7.1825 48.3325C7.4525 53.5025 7.6525 56.0925 8.2025 61.2725C8.9025 67.9125 11.6425 70.8925 17.8125 71.3425C36.1725 72.3825 54.2325 72.3825 72.5825 71.3425H72.5625Z" fill="black"/>
<path d="M68.4126 66.2824C73.8726 65.8824 76.3026 63.2524 76.9226 57.3724C77.4026 52.7924 77.5825 50.5024 77.8225 45.9224C78.1025 40.4524 80.8825 37.3024 83.5725 35.8424C84.3825 35.3924 84.3825 34.3424 83.5725 33.8324C80.7725 32.1624 78.0626 28.6024 77.8126 23.8924C77.5726 19.3924 77.3926 17.1424 76.9126 12.6524C76.2426 6.3124 74.1826 4.2724 68.7126 3.8724C52.4026 2.5924 35.9525 2.7424 19.6425 3.8724C14.1825 4.2724 12.1225 6.3224 11.4425 12.6524C10.9625 17.1524 10.7825 19.4024 10.5425 23.8924C10.2925 28.5924 7.58255 32.1624 4.78255 33.8324C3.97255 34.2924 3.97255 35.3824 4.78255 35.8424C7.47255 37.2524 10.2425 40.4024 10.5325 45.9224C10.7725 50.5024 10.9525 52.7924 11.4325 57.3724C12.0525 63.2524 14.4725 65.8824 19.9425 66.2824C36.0525 67.3924 52.3026 67.5324 68.4126 66.2824Z" fill="#D4FF4C"/>
<path d="M30.2125 43.1223C30.8125 42.3423 31.5025 42.0023 32.2825 42.0023C33.1425 42.0023 34.0125 42.3523 34.8725 42.9523C37.6325 44.7623 40.7425 45.8023 44.4525 45.8023C47.3025 45.8023 49.5425 44.5923 49.5425 42.1823C49.5425 35.8823 28.5725 39.3323 28.5725 25.1823C28.5725 17.5923 34.7825 13.3623 42.8125 13.3623C48.5125 13.3623 52.6525 15.0023 55.7625 16.9823C56.5425 17.5023 57.0525 18.5323 57.0525 19.5723C57.0525 20.1723 56.8825 20.7823 56.5325 21.3023L55.5825 22.6823C54.8925 23.6323 54.1125 24.0623 53.1625 24.0623C52.4725 24.0623 51.7825 23.8023 51.0025 23.4623C48.6725 22.2523 46.2525 21.6523 43.3225 21.6523C40.3925 21.6523 38.4925 23.2923 38.4925 25.0223C38.4925 31.4923 59.4625 27.9523 59.4625 41.6823C59.4625 49.3623 53.2525 54.1123 43.7525 54.1123C37.7125 54.1123 33.3125 52.3023 29.2525 48.7623C28.5625 48.1623 28.3025 47.3823 28.3025 46.6023C28.3025 46.0023 28.4725 45.3123 28.9025 44.7923L30.1925 43.1523L30.2125 43.1223Z" fill="black"/>
</svg>
