<svg xmlns="http://www.w3.org/2000/svg" width="34.004" height="34" viewBox="0 0 34.004 34"><path d="M112.379,104.769c-1.41-1.449-5.419-4.163-8.046-4.163a2.858,2.858,0,0,0-1.574.415,8.645,8.645,0,0,1-2.8,1.459c-.27,0-.56-.241-1.2-.792l-.106-.1a33.514,33.514,0,0,1-2.83-2.647l-.174-.184c-.126-.126-.232-.241-.338-.348-.6-.618-1.034-1.062-2.569-2.8l-.068-.077c-.734-.831-1.217-1.372-1.246-1.768s.309-1.014,1.169-2.183c1.043-1.41,1.082-3.149.126-5.168a23.508,23.508,0,0,0-3.11-4.462l-.1-.116A4.17,4.17,0,0,0,86.242,80.1a5.8,5.8,0,0,0-3.091,1.12c-.048.029-.1.068-.145.1a6.2,6.2,0,0,0-2.685,3.207c-.551,1.787-.918,4.105,1.719,8.925a43.128,43.128,0,0,0,7.631,10.345,46.1,46.1,0,0,0,7.534,6.414c3.419,2.473,6.7,3.893,9,3.893,2.135,0,3.815,0,6.211-2.888C114.929,108.179,113.886,106.324,112.379,104.769Zm-1.111,5.4c-1.932,2.338-3.043,2.338-5.052,2.338-1.961,0-5-1.352-8.133-3.6a44.643,44.643,0,0,1-7.331-6.24,41.612,41.612,0,0,1-7.38-10c-2.328-4.26-2.067-6.124-1.594-7.66a4.634,4.634,0,0,1,2.028-2.337c.048-.029.1-.068.155-.1a4.457,4.457,0,0,1,2.289-.879,2.719,2.719,0,0,1,2.115,1.188l.1.116c2.463,3.014,4.385,5.68,2.936,7.65-1.024,1.381-1.565,2.318-1.478,3.284.077.937.705,1.642,1.652,2.7l.068.077c1.555,1.758,2,2.222,2.618,2.849.106.106.212.222.338.348l.174.184a37.691,37.691,0,0,0,2.927,2.743l.106.1a3.355,3.355,0,0,0,2.173,1.169c.86,0,1.806-.541,3.6-1.69a1.449,1.449,0,0,1,.773-.184c2.1,0,5.709,2.4,6.974,3.7C112.485,107.107,113.065,108,111.268,110.169Z" transform="translate(-79.927 -80.1)" fill="#fff"/></svg>